<svg xmlns="http://www.w3.org/2000/svg" xmlns:xlink="http://www.w3.org/1999/xlink" xmlns:fi="http://pattern.flaticon.com/" x="0" y="0" width="700" height="350" viewBox="0 0 700 350"><rect x="0px" y="0px" width="100%" height="100%" opacity="0.9" fill="#ffffff"/><defs><g transform="matrix(0.1171875 0 0 0.1171875 238 119)" id="L1_0"><path d="M197,70c0-18.748-15.252-34-34-34s-34,15.252-34,34s15.252,34,34,34S197,88.748,197,70z M149,70    c0-7.72,6.28-14,14-14s14,6.28,14,14s-6.28,14-14,14S149,77.72,149,70z" id="XMLID_183_" fill="#ebebed"/><path d="M175.93,162.93c-1.86,1.86-2.93,4.44-2.93,7.07c0,2.63,1.07,5.21,2.93,7.07    c1.86,1.86,4.44,2.93,7.07,2.93c2.63,0,5.21-1.07,7.07-2.93S193,172.63,193,170c0-2.63-1.07-5.21-2.93-7.07    c-1.86-1.86-4.44-2.93-7.07-2.93C180.37,160,177.79,161.07,175.93,162.93z" id="XMLID_190_" fill="#ebebed"/><path d="M416.348,341.55l-40-43.333c-2.793-3.025-7.155-4.03-10.99-2.53C361.524,297.186,359,300.883,359,305v64    c0,45.767-37.233,83-83,83s-83-37.233-83-83V210c0-5.523-4.477-10-10-10s-10,4.477-10,10v159c0,56.794,46.206,103,103,103    s103-46.206,103-103v-38.424l20,21.667V369c0,67.822-55.178,123-123,123s-123-55.178-123-123v-9.333c0-5.522-4.477-10-10-10    s-10,4.478-10,10V369c0,78.851,64.149,143,143,143s143-64.149,143-143v-20.667C419,345.819,418.053,343.397,416.348,341.55z" id="XMLID_257_" fill="#ebebed"/><path d="M133,279.667c0,5.522,4.477,10,10,10s10-4.478,10-10V139.274c3.268,0.47,6.604,0.726,10,0.726    c38.598,0,70-31.402,70-70S201.598,0,163,0S93,31.402,93,70c0,27.867,16.372,51.977,40,63.232V279.667z M113,70    c0-27.57,22.43-50,50-50s50,22.43,50,50s-22.43,50-50,50S113,97.57,113,70z" id="XMLID_260_" fill="#ebebed"/><path d="M143,309.67c-2.63,0-5.21,1.06-7.07,2.93c-1.86,1.86-2.93,4.44-2.93,7.07s1.07,5.21,2.93,7.07    c1.86,1.859,4.44,2.93,7.07,2.93c2.63,0,5.21-1.07,7.07-2.93c1.86-1.86,2.93-4.44,2.93-7.07s-1.07-5.21-2.93-7.07    C148.21,310.729,145.63,309.67,143,309.67z" id="XMLID_261_" fill="#ebebed"/></g><path d="m326.210938 81h-93.207032v-47.210938c5.898438-2.820312 10-8.828124 10-15.789062 0-8.46875-6.050781-15.550781-14.050781-17.148438 0 .085938-3.453125-.851562-3.453125-.851562h-77.199219c-26.28125 0-48.300781 20.800781-48.789062 47.082031-.511719 26.886719 21.210937 48.917969 47.988281 48.917969h27.222656c3.988282 0 7.488282-2.988281 7.757813-6.96875.160156-2.28125-.707031-4.359375-2.179688-5.832031-1.359375-1.359375-3.230469-2.199219-5.300781-2.199219h-26.839844c-18.46875 0-33.96875-15.109375-33.648437-33.578125.308593-17.933594 14.980469-32.421875 32.988281-32.421875h60.78125c-.167969.980469-.28125 1.980469-.28125 3 0 6.960938 4.101562 12.96875 10 15.789062v47.210938h-8c-4.140625 0-7.5 3.359375-7.5 7.5v114.992188h-2.492188c-4.144531 0-7.507812 3.359374-7.507812 7.503906v123.007812h-52.078125c-31.621094 0-58.191406 25.867188-57.921875 57.5.191406 22.257813 13.210938 41.5 32 50.710938v27.117187c0 4.144531 3.359375 7.5 7.5 7.5h20.921875c3.820313 0 7.226563-2.75 7.691406-6.542969.558594-4.574218-2.988281-8.457031-7.441406-8.457031h-13.671875v-14.730469c3.25.582032 6.589844.902344 10 .902344 16.613281 0 31.570312-7.140625 42-18.511718v37.730468c0 24.621094 20.152344 45.191406 44.761719 44.769532 23.910156-.398438 43.242187-19.976563 43.242187-43.988282v-121.5c0-6.382812-4.8125-11.660156-11-12.402344v-123.101562c0-4.140625-3.359375-7.5-7.5-7.5h-2.5v-107.5h77.929688c29.5 0 54.121094 23.429688 54.558594 52.921875.460937 30.019531-23.820313 54.578125-53.738282 54.578125h-40.972656c-3.988281 0-7.488281 2.996094-7.761719 6.972656-.15625 2.28125.707031 4.355469 2.183594 5.828125 1.359375 1.359375 3.230469 2.199219 5.300781 2.199219h41.25c38.257813 0 69.328125-31.417969 68.738282-69.820312-.570313-37.71875-32.050782-67.679688-69.78125-67.679688zm-144.710938 310.003906c0 23.160156-18.839844 42-42 42-3.449219 0-6.789062-.429687-10-1.210937v-18.878907c3.0625 1.339844 6.453125 2.089844 10 2.089844 13.792969 0 25-11.210937 25-25 0-13.789062-11.207031-25-25-25-13.789062 0-25 11.210938-25 25 0 .21875.011719.4375.019531.667969-.007812.109375-.019531.222656-.019531.332031v33.730469c-10.308594-7.660156-17-19.929687-17-33.730469 0-23.160156 18.839844-42 42-42h42zm-52-1c0-5.511718 4.492188-10 10-10 5.511719 0 10 4.488282 10 10 0 5.507813-4.488281 10-10 10-5.507812 0-10-4.492187-10-10zm88-294.003906h16.003906v107h-16.003906zm-10 122.5h36.003906v115.503906h-36.003906zm47.003906 130.503906v119c0 15.988282-13.011718 29-29.003906 29-15.988281 0-29-13.011718-29-29v-119zm-195.003906-109.710937v-18.292969c0-1.378906 1.121094-2.5 2.5-2.5h102.996094c4.144531 0 7.503906-3.359375 7.503906-7.503906 0-4.144532-3.359375-7.503906-7.503906-7.503906l-102.996094.007812c-9.648438 0-17.5 7.851562-17.5 17.5v18.292969c-8.730469 3.097656-15 11.429687-15 21.210937v23c0 9.777344 6.269531 18.109375 15 21.207032v35.363281c0 7.929687-6.078125 14.769531-14 15.160156-8.46875.417969-15.5-6.351563-15.5-14.730469v-14.75c0-3.824218-2.75-7.226562-6.542969-7.695312-4.574219-.558594-8.457031 2.988281-8.457031 7.445312v14.359375c0 16.191407 12.660156 29.890625 28.839844 30.378907 16.8125.5 30.660156-13.039063 30.660156-29.738282v-35.792968c8.730469-3.097657 15-11.429688 15-21.207032v-23c0-9.78125-6.269531-18.113281-15-21.210937zm0 44.210937c0 4.136719-3.359375 7.5-7.5 7.5s-7.5-3.363281-7.5-7.5v-23c0-4.140625 3.359375-7.5 7.5-7.5s7.5 3.359375 7.5 7.5zm0 0" transform="matrix(0.11718742549419403 0 0 0.11718742549419403 115.00000010253905 27.999999282227066)" id="L1_1" fill="#edece8"/><g transform="matrix(0.1171875 0 0 0.1171875 241 258)" id="L1_2"><path d="m473.5 472h-2.5v-226.5c0-9.648438-7.851562-17.5-17.5-17.5h-14.167969c-20.585937 0-37.332031-16.746094-37.332031-37.332031v-163.167969c0-15.164062-12.335938-27.5-27.5-27.5h-51.5c-15.164062 0-27.5 12.335938-27.5 27.5v55c0 28.949219-23.550781 52.5-52.5 52.5s-52.5-23.550781-52.5-52.5v-55c0-15.164062-12.335938-27.5-27.5-27.5h-51.5c-15.164062 0-27.5 12.335938-27.5 27.5v162.5c0 20.953125-17.046875 38-38 38h-13.5c-9.648438 0-17.5 7.851562-17.5 17.5v226.5h-2.5c-6.894531 0-12.5 5.605469-12.5 12.5v15c0 6.894531 5.605469 12.5 12.5 12.5h461c6.894531 0 12.5-5.605469 12.5-12.5v-15c0-6.894531-5.605469-12.5-12.5-12.5zm-163-389.5v-55c0-6.894531 5.605469-12.5 12.5-12.5h7.5v67.5c0 45.804688-35.378906 83.496094-80.242188 87.195312v-20.089843c33.816407-3.632813 60.242188-32.335938 60.242188-67.105469zm-155-67.5h7.5c6.894531 0 12.5 5.605469 12.5 12.5v55c0 34.601562 26.171875 63.1875 59.757812 67.042969v20.109375c-44.636718-3.933594-79.757812-41.515625-79.757812-87.152344zm-140.5 472h193c4.140625 0 7.5-3.355469 7.5-7.5s-3.359375-7.5-7.5-7.5h-178v-226.5c0-1.378906 1.121094-2.5 2.5-2.5h13.5c29.222656 0 53-23.773438 53-53v-162.5c0-6.894531 5.605469-12.5 12.5-12.5h29v67.5c0 56.519531 45.980469 102.5 102.5 102.5s102.5-45.980469 102.5-102.5v-67.5h29c6.894531 0 12.5 5.605469 12.5 12.5v163.167969c0 28.855469 23.476562 52.332031 52.332031 52.332031h14.167969c1.378906 0 2.5 1.121094 2.5 2.5v226.5h-205.5v-259.5c0-4.144531-3.355469-7.5-7.5-7.5-4.140625 0-7.5 3.355469-7.5 7.5v284.5h-220.5zm456 10h-220.5v-10h220.5zm0 0" fill="#ebebed"/><path d="m293.5 452h119c12.40625 0 22.5-10.09375 22.5-22.5v-35c0-6.894531-5.605469-12.5-12.5-12.5h-139c-6.894531 0-12.5 5.605469-12.5 12.5v35c0 12.40625 10.09375 22.5 22.5 22.5zm-7.5-55h134v32.5c0 4.136719-3.363281 7.5-7.5 7.5h-119c-4.136719 0-7.5-3.363281-7.5-7.5zm0 0" fill="#ebebed"/><path d="m293.5 362h119c12.40625 0 22.5-10.09375 22.5-22.5v-64c0-6.894531-5.605469-12.5-12.5-12.5h-139c-6.894531 0-12.5 5.605469-12.5 12.5v64c0 12.40625 10.09375 22.5 22.5 22.5zm119-15h-119c-4.136719 0-7.5-3.363281-7.5-7.5v-29.519531c3.753906 1.925781 8 3.019531 12.5 3.019531h109c4.5 0 8.746094-1.09375 12.5-3.019531v29.519531c0 4.136719-3.363281 7.5-7.5 7.5zm-126.5-69h134v7.5c0 6.894531-5.605469 12.5-12.5 12.5h-109c-6.894531 0-12.5-5.605469-12.5-12.5zm0 0" fill="#ebebed"/><path d="m202.5 382h-139c-6.894531 0-12.5 5.605469-12.5 12.5v35c0 12.40625 10.09375 22.5 22.5 22.5h119c12.40625 0 22.5-10.09375 22.5-22.5v-35c0-6.894531-5.605469-12.5-12.5-12.5zm-2.5 47.5c0 4.136719-3.363281 7.5-7.5 7.5h-119c-4.136719 0-7.5-3.363281-7.5-7.5v-32.5h134zm0 0" fill="#ebebed"/><path d="m202.5 263h-139c-6.894531 0-12.5 5.605469-12.5 12.5v64c0 12.40625 10.09375 22.5 22.5 22.5h119c12.40625 0 22.5-10.09375 22.5-22.5v-64c0-6.894531-5.605469-12.5-12.5-12.5zm-136.5 15h134v7.5c0 6.894531-5.605469 12.5-12.5 12.5h-109c-6.894531 0-12.5-5.605469-12.5-12.5zm126.5 69h-119c-4.136719 0-7.5-3.363281-7.5-7.5v-29.519531c3.753906 1.925781 8 3.019531 12.5 3.019531h109c4.5 0 8.746094-1.09375 12.5-3.019531v29.519531c0 4.136719-3.363281 7.5-7.5 7.5zm0 0" fill="#ebebed"/></g><g transform="matrix(0.1171875 0 0 0.1171875 -1.9999957084655762 232)" id="L1_5"><path d="M363.234,164.414l-18.38-14.014c-2.947-20.401-8.391-40.972-16.175-60.77c-13.148-33.441-32.423-62.815-55.74-84.946    c-2.174-2.063-5.369-2.634-8.124-1.451c-2.754,1.183-4.54,3.893-4.54,6.891v11.519c-4.842-4.194-10.535-10.158-15.399-18.071    c-1.174-1.909-3.14-3.193-5.359-3.5c-2.223-0.31-4.461,0.393-6.109,1.91c-24.217,22.288-44.235,52.024-57.89,85.995    c-12.338,30.694-19.034,63.283-19.424,94.357l-15.153,37.644c-4.374,10.865-5.664,22.767-3.732,34.42    c12.455,75.145,38.044,129.319,39.127,131.589c1.246,2.609,3.879,4.269,6.768,4.269h0.037c2.903-0.014,5.538-1.703,6.763-4.335    l10.251-22.024c5.52,11.959,10.584,21.825,14.502,29.076c3.076,5.693,3.729,12.551,1.792,18.814l-27.984,90.498    c-0.91,2.942,0.071,6.141,2.474,8.067c2.402,1.926,5.738,2.187,8.413,0.66l44.182-25.247c5.063-2.894,11.356-2.894,16.42,0    l44.182,25.247c1.159,0.663,2.442,0.988,3.72,0.988c1.67,0,3.331-0.557,4.692-1.648c2.402-1.926,3.384-5.125,2.474-8.067    l-27.984-90.498c-1.937-6.264-1.284-13.122,1.792-18.814c11.252-20.823,31.906-62.981,45.445-113.885l8.681,11.493    c1.428,1.89,3.65,2.979,5.984,2.979c0.304,0,0.61-0.019,0.916-0.056c2.657-0.326,4.938-2.044,5.986-4.507    c14.769-34.708,18.735-76.339,19.785-98.066C376.123,180.622,371.491,170.709,363.234,164.414z M275.632,385.842    c-4.979,9.215-6.045,20.286-2.925,30.376l22.37,72.341l-22.05-12.599l-9.451-41.81c-0.914-4.04-4.928-6.577-8.969-5.662    c-4.04,0.913-6.575,4.929-5.662,8.969l7.109,31.447c-6.801-0.93-13.85,0.344-19.963,3.838l-27.681,15.817l22.37-72.342    c3.119-10.088,2.053-21.16-2.926-30.375c-6.575-12.168-16.467-31.882-26.255-56.699c-1.52-3.854-5.876-5.744-9.729-4.225    c-3.853,1.52-5.745,5.876-4.225,9.729c1.492,3.782,2.985,7.433,4.47,10.977l-8.717,18.728    c-8.437-21.067-23.085-62.293-31.391-112.408c-1.481-8.938-0.497-18.055,2.849-26.366l2.955-7.341    c2.779,26.682,8.864,54.774,18.209,83.912c1.265,3.944,5.489,6.118,9.432,4.851c3.944-1.265,6.116-5.488,4.851-9.432    c-12.979-40.469-19.451-78.713-19.238-113.668c0.151-24.82,4.58-50.163,12.51-74.231c18.784,16.362,43.057,25.572,68.167,25.572    c17.778,0,35.32-4.577,50.73-13.237c3.611-2.029,4.893-6.602,2.864-10.213c-2.029-3.611-6.603-4.894-10.213-2.864    c-13.171,7.402-28.172,11.314-43.382,11.314c-23.44,0-46.029-9.384-62.592-25.864c11.512-28.709,28.037-54.924,48.177-75.333    c12.395,16.233,26.398,23.424,27.07,23.763c2.325,1.173,5.092,1.054,7.309-0.31c2.217-1.365,3.568-3.783,3.568-6.387v-7.241    c34.789,40.33,56.805,99.164,57.146,155.031C332.948,270.331,292.882,353.917,275.632,385.842z M360.643,190.208    c-0.877,18.151-3.861,50.804-13.896,80.507l-7.902-10.463c5.335-24.357,8.736-50.247,8.576-76.443    c-0.026-4.282-0.185-8.597-0.451-12.934l7.169,5.466C358.472,179.645,360.903,184.829,360.643,190.208z" fill="#ebebed"/><path d="M235.711,56.113c-12.976,0-23.532,10.557-23.532,23.532c0,12.975,10.557,23.532,23.532,23.532    c12.975,0,23.532-10.557,23.532-23.532C259.243,66.67,248.686,56.113,235.711,56.113z M235.711,88.178    c-4.705,0-8.532-3.828-8.532-8.532s3.828-8.532,8.532-8.532c4.704,0,8.532,3.828,8.532,8.532S240.415,88.178,235.711,88.178z" fill="#ebebed"/><path d="M302.171,156.066H201.813c-4.142,0-7.5,3.358-7.5,7.5c0,4.142,3.358,7.5,7.5,7.5h100.358c4.142,0,7.5-3.358,7.5-7.5    C309.671,159.424,306.313,156.066,302.171,156.066z" fill="#ebebed"/><path d="M256.004,204.163h-54.845c-4.142,0-7.5,3.358-7.5,7.5c0,4.142,3.358,7.5,7.5,7.5h54.845c4.142,0,7.5-3.358,7.5-7.5    C263.504,207.521,260.146,204.163,256.004,204.163z" fill="#ebebed"/><path d="M302.826,204.163h-14.763c-4.142,0-7.5,3.358-7.5,7.5c0,4.142,3.358,7.5,7.5,7.5h14.763c4.142,0,7.5-3.358,7.5-7.5    C310.326,207.521,306.968,204.163,302.826,204.163z" fill="#ebebed"/><path d="M296.081,252.259h-88.177c-4.142,0-7.5,3.358-7.5,7.5c0,4.142,3.358,7.5,7.5,7.5h88.177c4.142,0,7.5-3.358,7.5-7.5    C303.581,255.617,300.223,252.259,296.081,252.259z" fill="#ebebed"/><path d="M231.948,300.356h-9.418c-4.142,0-7.5,3.358-7.5,7.5c0,4.142,3.358,7.5,7.5,7.5h9.418c4.142,0,7.5-3.357,7.5-7.5    C239.448,303.714,236.09,300.356,231.948,300.356z" fill="#ebebed"/><path d="M281.455,300.356h-17.438c-4.142,0-7.5,3.358-7.5,7.5c0,4.142,3.358,7.5,7.5,7.5h17.438c4.142,0,7.5-3.358,7.5-7.5    C288.955,303.714,285.597,300.356,281.455,300.356z" fill="#ebebed"/><path d="M264.016,348.453h-24.048c-4.142,0-7.5,3.358-7.5,7.5c0,4.142,3.358,7.5,7.5,7.5h24.048c4.142,0,7.5-3.358,7.5-7.5    C271.516,351.811,268.159,348.453,264.016,348.453z" fill="#ebebed"/></g><g transform="matrix(0.14599037170410156 0 0 0.14599037170410156 58 135.0000005524538)" id="L1_6"><path d="M355.105,118.905c-14.799,0-22.337-6.899-28.988-12.986c-6.005-5.497-10.749-9.839-20.886-9.839    c-10.137,0-14.881,4.342-20.887,9.839c-6.65,6.087-14.188,12.986-28.988,12.986c-14.8,0-22.337-6.899-28.988-12.986    c-6.005-5.497-10.748-9.839-20.885-9.839c-10.136,0-14.879,4.342-20.884,9.839c-6.65,6.087-14.188,12.986-28.988,12.986    c-14.798,0-22.334-6.899-28.984-12.986c-6.004-5.497-10.747-9.839-20.882-9.839c-10.136,0-14.879,4.342-20.884,9.839    c-6.65,6.087-14.188,12.986-28.987,12.986c-14.8,0-22.338-6.899-28.989-12.986C20.88,100.422,16.137,96.08,6,96.08    c-3.313,0-6-2.686-6-6c0-3.313,2.687-6,6-6c14.799,0,22.337,6.899,28.988,12.986c6.005,5.497,10.749,9.839,20.886,9.839    c10.136,0,14.879-4.342,20.884-9.838c6.65-6.088,14.188-12.987,28.987-12.987c14.798,0,22.335,6.9,28.985,12.987    c6.004,5.497,10.746,9.838,20.881,9.838c10.137,0,14.88-4.342,20.885-9.838c6.65-6.088,14.188-12.987,28.987-12.987    c14.8,0,22.337,6.899,28.988,12.987c6.005,5.496,10.749,9.838,20.885,9.838c10.138,0,14.881-4.342,20.886-9.838    c6.651-6.088,14.189-12.987,28.989-12.987s22.338,6.899,28.989,12.987c6.005,5.496,10.748,9.838,20.885,9.838    c10.139,0,14.883-4.342,20.89-9.839c6.651-6.087,14.19-12.986,28.991-12.986c3.313,0,6,2.687,6,6c0,3.314-2.687,6-6,6    c-10.139,0-14.883,4.342-20.89,9.839C377.445,112.006,369.907,118.905,355.105,118.905z" fill="#ebebed"/><path d="M355.105,170.905c-14.799,0-22.337-6.899-28.988-12.986c-6.005-5.497-10.749-9.839-20.886-9.839    c-10.137,0-14.881,4.342-20.887,9.839c-6.65,6.087-14.188,12.986-28.988,12.986c-14.8,0-22.337-6.899-28.988-12.986    c-6.005-5.497-10.748-9.839-20.885-9.839c-10.136,0-14.879,4.342-20.884,9.839c-6.65,6.087-14.188,12.986-28.988,12.986    c-14.798,0-22.334-6.899-28.984-12.986c-6.004-5.497-10.747-9.839-20.882-9.839c-10.136,0-14.879,4.342-20.884,9.839    c-6.65,6.087-14.188,12.986-28.987,12.986c-14.8,0-22.338-6.899-28.989-12.986C20.88,152.422,16.137,148.08,6,148.08    c-3.313,0-6-2.686-6-6c0-3.313,2.687-6,6-6c14.799,0,22.337,6.899,28.988,12.986c6.005,5.497,10.749,9.839,20.886,9.839    c10.136,0,14.879-4.342,20.884-9.838c6.65-6.088,14.188-12.987,28.987-12.987c14.798,0,22.335,6.9,28.985,12.987    c6.004,5.497,10.746,9.838,20.881,9.838c10.137,0,14.88-4.342,20.885-9.838c6.65-6.088,14.188-12.987,28.987-12.987    c14.8,0,22.337,6.899,28.988,12.987c6.005,5.496,10.749,9.838,20.885,9.838c10.138,0,14.881-4.342,20.886-9.838    c6.651-6.088,14.189-12.987,28.989-12.987s22.338,6.899,28.989,12.987c6.005,5.496,10.748,9.838,20.885,9.838    c10.139,0,14.883-4.342,20.89-9.839c6.651-6.087,14.19-12.986,28.991-12.986c3.313,0,6,2.687,6,6c0,3.314-2.687,6-6,6    c-10.139,0-14.883,4.342-20.89,9.839C377.445,164.006,369.907,170.905,355.105,170.905z" fill="#ebebed"/><path d="M355.105,222.906c-14.799,0-22.337-6.899-28.988-12.986c-6.005-5.497-10.749-9.839-20.886-9.839    c-10.137,0-14.881,4.342-20.887,9.838c-6.65,6.088-14.188,12.987-28.988,12.987c-14.8,0-22.337-6.899-28.988-12.987    c-6.005-5.496-10.748-9.838-20.885-9.838c-10.136,0-14.879,4.342-20.884,9.838c-6.65,6.088-14.188,12.987-28.988,12.987    c-14.798,0-22.334-6.899-28.984-12.987c-6.004-5.496-10.747-9.838-20.882-9.838c-10.136,0-14.879,4.342-20.884,9.838    c-6.65,6.088-14.188,12.987-28.987,12.987c-14.8,0-22.338-6.899-28.989-12.987c-6.005-5.496-10.749-9.838-20.885-9.838    c-3.313,0-6-2.687-6-6c0-3.314,2.687-6,6-6c14.799,0,22.337,6.899,28.988,12.986c6.005,5.497,10.749,9.839,20.886,9.839    c10.136,0,14.879-4.342,20.884-9.839c6.65-6.087,14.188-12.986,28.987-12.986c14.798,0,22.335,6.899,28.985,12.987    c6.004,5.496,10.746,9.838,20.881,9.838c10.137,0,14.88-4.342,20.885-9.839c6.65-6.087,14.188-12.986,28.987-12.986    c14.8,0,22.337,6.899,28.988,12.986c6.005,5.497,10.749,9.839,20.885,9.839c10.138,0,14.881-4.342,20.886-9.839    c6.651-6.087,14.189-12.986,28.989-12.986s22.338,6.899,28.989,12.986c6.005,5.497,10.748,9.839,20.885,9.839    c10.139,0,14.883-4.342,20.89-9.839c6.651-6.087,14.19-12.986,28.991-12.986c3.313,0,6,2.686,6,6c0,3.313-2.687,6-6,6    c-10.139,0-14.883,4.342-20.89,9.839C377.445,216.007,369.907,222.906,355.105,222.906z" fill="#ebebed"/><path d="M355.105,274.906c-14.799,0-22.337-6.899-28.988-12.986c-6.005-5.497-10.749-9.839-20.886-9.839    c-10.137,0-14.881,4.342-20.887,9.838c-6.65,6.088-14.188,12.987-28.988,12.987c-14.8,0-22.337-6.899-28.988-12.987    c-6.005-5.496-10.748-9.838-20.885-9.838c-10.136,0-14.879,4.342-20.884,9.838c-6.65,6.088-14.188,12.987-28.988,12.987    c-14.798,0-22.334-6.899-28.984-12.987c-6.004-5.496-10.747-9.838-20.882-9.838c-10.136,0-14.879,4.342-20.884,9.838    c-6.65,6.088-14.188,12.987-28.987,12.987c-14.8,0-22.338-6.899-28.989-12.987c-6.005-5.496-10.749-9.838-20.885-9.838    c-3.313,0-6-2.687-6-6c0-3.314,2.687-6,6-6c14.799,0,22.337,6.899,28.988,12.986c6.005,5.497,10.749,9.839,20.886,9.839    c10.136,0,14.879-4.342,20.884-9.839c6.65-6.087,14.188-12.986,28.987-12.986c14.798,0,22.335,6.899,28.985,12.987    c6.004,5.496,10.746,9.838,20.881,9.838c10.137,0,14.88-4.342,20.885-9.839c6.65-6.087,14.188-12.986,28.987-12.986    c14.8,0,22.337,6.899,28.988,12.986c6.005,5.497,10.749,9.839,20.885,9.839c10.138,0,14.881-4.342,20.886-9.839    c6.651-6.087,14.189-12.986,28.989-12.986s22.338,6.899,28.989,12.986c6.005,5.497,10.748,9.839,20.885,9.839    c10.139,0,14.883-4.342,20.89-9.839c6.651-6.087,14.19-12.986,28.991-12.986c3.313,0,6,2.686,6,6c0,3.313-2.687,6-6,6    c-10.139,0-14.883,4.342-20.89,9.839C377.445,268.007,369.907,274.906,355.105,274.906z" fill="#ebebed"/><path d="M355.105,326.906c-14.799,0-22.337-6.899-28.988-12.986c-6.005-5.497-10.749-9.839-20.886-9.839    c-10.137,0-14.881,4.342-20.887,9.838c-6.65,6.088-14.188,12.987-28.988,12.987c-14.8,0-22.337-6.899-28.988-12.987    c-6.005-5.496-10.748-9.838-20.885-9.838c-10.136,0-14.879,4.342-20.884,9.838c-6.65,6.088-14.188,12.987-28.988,12.987    c-14.798,0-22.334-6.899-28.984-12.987c-6.004-5.496-10.747-9.838-20.882-9.838c-10.136,0-14.879,4.342-20.884,9.838    c-6.65,6.088-14.188,12.987-28.987,12.987c-14.8,0-22.338-6.899-28.989-12.987c-6.005-5.496-10.749-9.838-20.885-9.838    c-3.313,0-6-2.687-6-6c0-3.315,2.687-6,6-6c14.799,0,22.337,6.899,28.988,12.986c6.005,5.497,10.749,9.839,20.886,9.839    c10.136,0,14.879-4.342,20.884-9.839c6.65-6.087,14.188-12.986,28.987-12.986c14.798,0,22.335,6.899,28.985,12.987    c6.004,5.496,10.746,9.838,20.881,9.838c10.137,0,14.88-4.342,20.885-9.839c6.65-6.087,14.188-12.986,28.987-12.986    c14.8,0,22.337,6.899,28.988,12.986c6.005,5.497,10.749,9.839,20.885,9.839c10.138,0,14.881-4.342,20.886-9.839    c6.651-6.087,14.189-12.986,28.989-12.986s22.338,6.899,28.989,12.986c6.005,5.497,10.748,9.839,20.885,9.839    c10.139,0,14.883-4.342,20.89-9.839c6.651-6.087,14.19-12.986,28.991-12.986c3.313,0,6,2.685,6,6c0,3.313-2.687,6-6,6    c-10.139,0-14.883,4.342-20.89,9.839C377.445,320.007,369.907,326.906,355.105,326.906z" fill="#ebebed"/></g><g transform="matrix(0.1171875 0 0 0.1171875 299.00000286102295 7)"><path d="M363.234,164.414l-18.38-14.014c-2.947-20.401-8.391-40.972-16.175-60.77c-13.148-33.441-32.423-62.815-55.74-84.946    c-2.174-2.063-5.369-2.634-8.124-1.451c-2.754,1.183-4.54,3.893-4.54,6.891v11.519c-4.842-4.194-10.535-10.158-15.399-18.071    c-1.174-1.909-3.14-3.193-5.359-3.5c-2.223-0.31-4.461,0.393-6.109,1.91c-24.217,22.288-44.235,52.024-57.89,85.995    c-12.338,30.694-19.034,63.283-19.424,94.357l-15.153,37.644c-4.374,10.865-5.664,22.767-3.732,34.42    c12.455,75.145,38.044,129.319,39.127,131.589c1.246,2.609,3.879,4.269,6.768,4.269h0.037c2.903-0.014,5.538-1.703,6.763-4.335    l10.251-22.024c5.52,11.959,10.584,21.825,14.502,29.076c3.076,5.693,3.729,12.551,1.792,18.814l-27.984,90.498    c-0.91,2.942,0.071,6.141,2.474,8.067c2.402,1.926,5.738,2.187,8.413,0.66l44.182-25.247c5.063-2.894,11.356-2.894,16.42,0    l44.182,25.247c1.159,0.663,2.442,0.988,3.72,0.988c1.67,0,3.331-0.557,4.692-1.648c2.402-1.926,3.384-5.125,2.474-8.067    l-27.984-90.498c-1.937-6.264-1.284-13.122,1.792-18.814c11.252-20.823,31.906-62.981,45.445-113.885l8.681,11.493    c1.428,1.89,3.65,2.979,5.984,2.979c0.304,0,0.61-0.019,0.916-0.056c2.657-0.326,4.938-2.044,5.986-4.507    c14.769-34.708,18.735-76.339,19.785-98.066C376.123,180.622,371.491,170.709,363.234,164.414z M275.632,385.842    c-4.979,9.215-6.045,20.286-2.925,30.376l22.37,72.341l-22.05-12.599l-9.451-41.81c-0.914-4.04-4.928-6.577-8.969-5.662    c-4.04,0.913-6.575,4.929-5.662,8.969l7.109,31.447c-6.801-0.93-13.85,0.344-19.963,3.838l-27.681,15.817l22.37-72.342    c3.119-10.088,2.053-21.16-2.926-30.375c-6.575-12.168-16.467-31.882-26.255-56.699c-1.52-3.854-5.876-5.744-9.729-4.225    c-3.853,1.52-5.745,5.876-4.225,9.729c1.492,3.782,2.985,7.433,4.47,10.977l-8.717,18.728    c-8.437-21.067-23.085-62.293-31.391-112.408c-1.481-8.938-0.497-18.055,2.849-26.366l2.955-7.341    c2.779,26.682,8.864,54.774,18.209,83.912c1.265,3.944,5.489,6.118,9.432,4.851c3.944-1.265,6.116-5.488,4.851-9.432    c-12.979-40.469-19.451-78.713-19.238-113.668c0.151-24.82,4.58-50.163,12.51-74.231c18.784,16.362,43.057,25.572,68.167,25.572    c17.778,0,35.32-4.577,50.73-13.237c3.611-2.029,4.893-6.602,2.864-10.213c-2.029-3.611-6.603-4.894-10.213-2.864    c-13.171,7.402-28.172,11.314-43.382,11.314c-23.44,0-46.029-9.384-62.592-25.864c11.512-28.709,28.037-54.924,48.177-75.333    c12.395,16.233,26.398,23.424,27.07,23.763c2.325,1.173,5.092,1.054,7.309-0.31c2.217-1.365,3.568-3.783,3.568-6.387v-7.241    c34.789,40.33,56.805,99.164,57.146,155.031C332.948,270.331,292.882,353.917,275.632,385.842z M360.643,190.208    c-0.877,18.151-3.861,50.804-13.896,80.507l-7.902-10.463c5.335-24.357,8.736-50.247,8.576-76.443    c-0.026-4.282-0.185-8.597-0.451-12.934l7.169,5.466C358.472,179.645,360.903,184.829,360.643,190.208z" fill="#ebebed"/><path d="M235.711,56.113c-12.976,0-23.532,10.557-23.532,23.532c0,12.975,10.557,23.532,23.532,23.532    c12.975,0,23.532-10.557,23.532-23.532C259.243,66.67,248.686,56.113,235.711,56.113z M235.711,88.178    c-4.705,0-8.532-3.828-8.532-8.532s3.828-8.532,8.532-8.532c4.704,0,8.532,3.828,8.532,8.532S240.415,88.178,235.711,88.178z" fill="#ebebed"/><path d="M302.171,156.066H201.813c-4.142,0-7.5,3.358-7.5,7.5c0,4.142,3.358,7.5,7.5,7.5h100.358c4.142,0,7.5-3.358,7.5-7.5    C309.671,159.424,306.313,156.066,302.171,156.066z" fill="#ebebed"/><path d="M256.004,204.163h-54.845c-4.142,0-7.5,3.358-7.5,7.5c0,4.142,3.358,7.5,7.5,7.5h54.845c4.142,0,7.5-3.358,7.5-7.5    C263.504,207.521,260.146,204.163,256.004,204.163z" fill="#ebebed"/><path d="M302.826,204.163h-14.763c-4.142,0-7.5,3.358-7.5,7.5c0,4.142,3.358,7.5,7.5,7.5h14.763c4.142,0,7.5-3.358,7.5-7.5    C310.326,207.521,306.968,204.163,302.826,204.163z" fill="#ebebed"/><path d="M296.081,252.259h-88.177c-4.142,0-7.5,3.358-7.5,7.5c0,4.142,3.358,7.5,7.5,7.5h88.177c4.142,0,7.5-3.358,7.5-7.5    C303.581,255.617,300.223,252.259,296.081,252.259z" fill="#ebebed"/><path d="M231.948,300.356h-9.418c-4.142,0-7.5,3.358-7.5,7.5c0,4.142,3.358,7.5,7.5,7.5h9.418c4.142,0,7.5-3.357,7.5-7.5    C239.448,303.714,236.09,300.356,231.948,300.356z" fill="#ebebed"/><path d="M281.455,300.356h-17.438c-4.142,0-7.5,3.358-7.5,7.5c0,4.142,3.358,7.5,7.5,7.5h17.438c4.142,0,7.5-3.358,7.5-7.5    C288.955,303.714,285.597,300.356,281.455,300.356z" fill="#ebebed"/><path d="M264.016,348.453h-24.048c-4.142,0-7.5,3.358-7.5,7.5c0,4.142,3.358,7.5,7.5,7.5h24.048c4.142,0,7.5-3.358,7.5-7.5    C271.516,351.811,268.159,348.453,264.016,348.453z" fill="#ebebed"/></g><g transform="matrix(0.1171875 0 0 0.1171875 95.00000393390656 157)"><path d="M363.234,164.414l-18.38-14.014c-2.947-20.401-8.391-40.972-16.175-60.77c-13.148-33.441-32.423-62.815-55.74-84.946    c-2.174-2.063-5.369-2.634-8.124-1.451c-2.754,1.183-4.54,3.893-4.54,6.891v11.519c-4.842-4.194-10.535-10.158-15.399-18.071    c-1.174-1.909-3.14-3.193-5.359-3.5c-2.223-0.31-4.461,0.393-6.109,1.91c-24.217,22.288-44.235,52.024-57.89,85.995    c-12.338,30.694-19.034,63.283-19.424,94.357l-15.153,37.644c-4.374,10.865-5.664,22.767-3.732,34.42    c12.455,75.145,38.044,129.319,39.127,131.589c1.246,2.609,3.879,4.269,6.768,4.269h0.037c2.903-0.014,5.538-1.703,6.763-4.335    l10.251-22.024c5.52,11.959,10.584,21.825,14.502,29.076c3.076,5.693,3.729,12.551,1.792,18.814l-27.984,90.498    c-0.91,2.942,0.071,6.141,2.474,8.067c2.402,1.926,5.738,2.187,8.413,0.66l44.182-25.247c5.063-2.894,11.356-2.894,16.42,0    l44.182,25.247c1.159,0.663,2.442,0.988,3.72,0.988c1.67,0,3.331-0.557,4.692-1.648c2.402-1.926,3.384-5.125,2.474-8.067    l-27.984-90.498c-1.937-6.264-1.284-13.122,1.792-18.814c11.252-20.823,31.906-62.981,45.445-113.885l8.681,11.493    c1.428,1.89,3.65,2.979,5.984,2.979c0.304,0,0.61-0.019,0.916-0.056c2.657-0.326,4.938-2.044,5.986-4.507    c14.769-34.708,18.735-76.339,19.785-98.066C376.123,180.622,371.491,170.709,363.234,164.414z M275.632,385.842    c-4.979,9.215-6.045,20.286-2.925,30.376l22.37,72.341l-22.05-12.599l-9.451-41.81c-0.914-4.04-4.928-6.577-8.969-5.662    c-4.04,0.913-6.575,4.929-5.662,8.969l7.109,31.447c-6.801-0.93-13.85,0.344-19.963,3.838l-27.681,15.817l22.37-72.342    c3.119-10.088,2.053-21.16-2.926-30.375c-6.575-12.168-16.467-31.882-26.255-56.699c-1.52-3.854-5.876-5.744-9.729-4.225    c-3.853,1.52-5.745,5.876-4.225,9.729c1.492,3.782,2.985,7.433,4.47,10.977l-8.717,18.728    c-8.437-21.067-23.085-62.293-31.391-112.408c-1.481-8.938-0.497-18.055,2.849-26.366l2.955-7.341    c2.779,26.682,8.864,54.774,18.209,83.912c1.265,3.944,5.489,6.118,9.432,4.851c3.944-1.265,6.116-5.488,4.851-9.432    c-12.979-40.469-19.451-78.713-19.238-113.668c0.151-24.82,4.58-50.163,12.51-74.231c18.784,16.362,43.057,25.572,68.167,25.572    c17.778,0,35.32-4.577,50.73-13.237c3.611-2.029,4.893-6.602,2.864-10.213c-2.029-3.611-6.603-4.894-10.213-2.864    c-13.171,7.402-28.172,11.314-43.382,11.314c-23.44,0-46.029-9.384-62.592-25.864c11.512-28.709,28.037-54.924,48.177-75.333    c12.395,16.233,26.398,23.424,27.07,23.763c2.325,1.173,5.092,1.054,7.309-0.31c2.217-1.365,3.568-3.783,3.568-6.387v-7.241    c34.789,40.33,56.805,99.164,57.146,155.031C332.948,270.331,292.882,353.917,275.632,385.842z M360.643,190.208    c-0.877,18.151-3.861,50.804-13.896,80.507l-7.902-10.463c5.335-24.357,8.736-50.247,8.576-76.443    c-0.026-4.282-0.185-8.597-0.451-12.934l7.169,5.466C358.472,179.645,360.903,184.829,360.643,190.208z" fill="#ebedeb"/><path d="M235.711,56.113c-12.976,0-23.532,10.557-23.532,23.532c0,12.975,10.557,23.532,23.532,23.532    c12.975,0,23.532-10.557,23.532-23.532C259.243,66.67,248.686,56.113,235.711,56.113z M235.711,88.178    c-4.705,0-8.532-3.828-8.532-8.532s3.828-8.532,8.532-8.532c4.704,0,8.532,3.828,8.532,8.532S240.415,88.178,235.711,88.178z" fill="#ebedeb"/><path d="M302.171,156.066H201.813c-4.142,0-7.5,3.358-7.5,7.5c0,4.142,3.358,7.5,7.5,7.5h100.358c4.142,0,7.5-3.358,7.5-7.5    C309.671,159.424,306.313,156.066,302.171,156.066z" fill="#ebedeb"/><path d="M256.004,204.163h-54.845c-4.142,0-7.5,3.358-7.5,7.5c0,4.142,3.358,7.5,7.5,7.5h54.845c4.142,0,7.5-3.358,7.5-7.5    C263.504,207.521,260.146,204.163,256.004,204.163z" fill="#ebedeb"/><path d="M302.826,204.163h-14.763c-4.142,0-7.5,3.358-7.5,7.5c0,4.142,3.358,7.5,7.5,7.5h14.763c4.142,0,7.5-3.358,7.5-7.5    C310.326,207.521,306.968,204.163,302.826,204.163z" fill="#ebedeb"/><path d="M296.081,252.259h-88.177c-4.142,0-7.5,3.358-7.5,7.5c0,4.142,3.358,7.5,7.5,7.5h88.177c4.142,0,7.5-3.358,7.5-7.5    C303.581,255.617,300.223,252.259,296.081,252.259z" fill="#ebedeb"/><path d="M231.948,300.356h-9.418c-4.142,0-7.5,3.358-7.5,7.5c0,4.142,3.358,7.5,7.5,7.5h9.418c4.142,0,7.5-3.357,7.5-7.5    C239.448,303.714,236.09,300.356,231.948,300.356z" fill="#ebedeb"/><path d="M281.455,300.356h-17.438c-4.142,0-7.5,3.358-7.5,7.5c0,4.142,3.358,7.5,7.5,7.5h17.438c4.142,0,7.5-3.358,7.5-7.5    C288.955,303.714,285.597,300.356,281.455,300.356z" fill="#ebedeb"/><path d="M264.016,348.453h-24.048c-4.142,0-7.5,3.358-7.5,7.5c0,4.142,3.358,7.5,7.5,7.5h24.048c4.142,0,7.5-3.358,7.5-7.5    C271.516,351.811,268.159,348.453,264.016,348.453z" fill="#ebedeb"/></g></defs><g fi:class="KUsePattern"><pattern id="pattern_L1_0" width="350" height="350" patternUnits="userSpaceOnUse"><use xlink:href="#L1_0" x="-350" y="-350"/><use xlink:href="#L1_0" x="0" y="-350"/><use xlink:href="#L1_0" x="350" y="-350"/><use xlink:href="#L1_0" x="-350" y="0"/><use xlink:href="#L1_0" x="0" y="0"/><use xlink:href="#L1_0" x="350" y="0"/><use xlink:href="#L1_0" x="-350" y="350"/><use xlink:href="#L1_0" x="0" y="350"/><use xlink:href="#L1_0" x="350" y="350"/></pattern><rect x="0" y="0" width="100%" height="100%" fill="url(#pattern_L1_0)"/></g><g fi:class="KUsePattern"><pattern id="pattern_L1_1" width="350" height="350" patternUnits="userSpaceOnUse"><use xlink:href="#L1_1" x="-350" y="-350"/><use xlink:href="#L1_1" x="0" y="-350"/><use xlink:href="#L1_1" x="350" y="-350"/><use xlink:href="#L1_1" x="-350" y="0"/><use xlink:href="#L1_1" x="0" y="0"/><use xlink:href="#L1_1" x="350" y="0"/><use xlink:href="#L1_1" x="-350" y="350"/><use xlink:href="#L1_1" x="0" y="350"/><use xlink:href="#L1_1" x="350" y="350"/></pattern><rect x="0" y="0" width="100%" height="100%" fill="url(#pattern_L1_1)"/></g><g fi:class="KUsePattern"><pattern id="pattern_L1_2" width="350" height="350" patternUnits="userSpaceOnUse"><use xlink:href="#L1_2" x="-350" y="-350"/><use xlink:href="#L1_2" x="0" y="-350"/><use xlink:href="#L1_2" x="350" y="-350"/><use xlink:href="#L1_2" x="-350" y="0"/><use xlink:href="#L1_2" x="0" y="0"/><use xlink:href="#L1_2" x="350" y="0"/><use xlink:href="#L1_2" x="-350" y="350"/><use xlink:href="#L1_2" x="0" y="350"/><use xlink:href="#L1_2" x="350" y="350"/></pattern><rect x="0" y="0" width="100%" height="100%" fill="url(#pattern_L1_2)"/></g><g fi:class="KUsePattern"><pattern id="pattern_L1_5" width="350" height="350" patternUnits="userSpaceOnUse"><use xlink:href="#L1_5" x="-350" y="-350"/><use xlink:href="#L1_5" x="0" y="-350"/><use xlink:href="#L1_5" x="350" y="-350"/><use xlink:href="#L1_5" x="-350" y="0"/><use xlink:href="#L1_5" x="0" y="0"/><use xlink:href="#L1_5" x="350" y="0"/><use xlink:href="#L1_5" x="-350" y="350"/><use xlink:href="#L1_5" x="0" y="350"/><use xlink:href="#L1_5" x="350" y="350"/></pattern><rect x="0" y="0" width="100%" height="100%" fill="url(#pattern_L1_5)"/></g><g fi:class="KUsePattern"><pattern id="pattern_L1_6" width="350" height="350" patternUnits="userSpaceOnUse"><use xlink:href="#L1_6" x="-350" y="-350"/><use xlink:href="#L1_6" x="0" y="-350"/><use xlink:href="#L1_6" x="350" y="-350"/><use xlink:href="#L1_6" x="-350" y="0"/><use xlink:href="#L1_6" x="0" y="0"/><use xlink:href="#L1_6" x="350" y="0"/><use xlink:href="#L1_6" x="-350" y="350"/><use xlink:href="#L1_6" x="0" y="350"/><use xlink:href="#L1_6" x="350" y="350"/></pattern><rect x="0" y="0" width="100%" height="100%" fill="url(#pattern_L1_6)"/></g><g fi:class="KUsePattern" transform="matrix(1 0 0 1 20 20)"><pattern id="pattern_UNKNOWN" width="350" height="350" patternUnits="userSpaceOnUse"><use xlink:href="#UNKNOWN" x="-350" y="-350"/><use xlink:href="#UNKNOWN" x="0" y="-350"/><use xlink:href="#UNKNOWN" x="350" y="-350"/><use xlink:href="#UNKNOWN" x="-350" y="0"/><use xlink:href="#UNKNOWN" x="0" y="0"/><use xlink:href="#UNKNOWN" x="350" y="0"/><use xlink:href="#UNKNOWN" x="-350" y="350"/><use xlink:href="#UNKNOWN" x="0" y="350"/><use xlink:href="#UNKNOWN" x="350" y="350"/></pattern><rect x="0" y="0" width="100%" height="100%" fill="url(#pattern_UNKNOWN)"/></g><g fi:class="KUsePattern" transform="matrix(1 0 0 1 40 40)"><pattern id="pattern_UNKNOWN" width="350" height="350" patternUnits="userSpaceOnUse"><use xlink:href="#UNKNOWN" x="-350" y="-350"/><use xlink:href="#UNKNOWN" x="0" y="-350"/><use xlink:href="#UNKNOWN" x="350" y="-350"/><use xlink:href="#UNKNOWN" x="-350" y="0"/><use xlink:href="#UNKNOWN" x="0" y="0"/><use xlink:href="#UNKNOWN" x="350" y="0"/><use xlink:href="#UNKNOWN" x="-350" y="350"/><use xlink:href="#UNKNOWN" x="0" y="350"/><use xlink:href="#UNKNOWN" x="350" y="350"/></pattern><rect x="0" y="0" width="100%" height="100%" fill="url(#pattern_UNKNOWN)"/></g></svg>